REM DIRINDEX 1\3,1\2\4,1\2\5,1\2\6
REM DIRNAME folder01,folder02,folder03,folder04,folder05,folder06
TITLE ""
FILE "008.mp3" MP3
  TRACK 01 AUDIO
    TITLE "4:cjc137_0297"
    INDEX 01 00:00:00
  TRACK 02 AUDIO
    TITLE "0:"
    INDEX 01 00:01:05
  TRACK 03 AUDIO
    TITLE "6:cjc137_0298"
    INDEX 01 00:01:19
  TRACK 04 AUDIO
    TITLE "0:"
    INDEX 01 00:02:30
  TRACK 05 AUDIO
    TITLE "5:cjc137_0299"
    INDEX 01 00:02:42
  TRACK 06 AUDIO
    TITLE "0:"
    INDEX 01 00:03:47
  TRACK 07 AUDIO
    TITLE "4:cjc137_0300"
    INDEX 01 00:04:56
  TRACK 08 AUDIO
    TITLE "0:"
    INDEX 01 00:05:71
  TRACK 09 AUDIO
    TITLE "6:cjc137_0301"
    INDEX 01 00:06:08
  TRACK 10 AUDIO
    TITLE "0:"
    INDEX 01 00:07:19
  TRACK 11 AUDIO
    TITLE "5:cjc137_0302"
    INDEX 01 00:07:29
  TRACK 12 AUDIO
    TITLE "0:"
    INDEX 01 00:08:44
  TRACK 13 AUDIO
    TITLE "4:cjc137_0303"
    INDEX 01 00:09:51
  TRACK 14 AUDIO
    TITLE "0:"
    INDEX 01 00:10:51
  TRACK 15 AUDIO
    TITLE "6:cjc137_0304"
    INDEX 01 00:10:66
  TRACK 16 AUDIO
    TITLE "0:"
    INDEX 01 00:11:56
  TRACK 17 AUDIO
    TITLE "5:cjc137_0305"
    INDEX 01 00:11:68
  TRACK 18 AUDIO
    TITLE "0:"
    INDEX 01 00:12:67
  TRACK 19 AUDIO
    TITLE "4:cjc137_0306"
    INDEX 01 00:14:06
  TRACK 20 AUDIO
    TITLE "0:"
    INDEX 01 00:15:09
  TRACK 21 AUDIO
    TITLE "6:cjc137_0307"
    INDEX 01 00:15:19
  TRACK 22 AUDIO
    TITLE "0:"
    INDEX 01 00:16:63
  TRACK 23 AUDIO
    TITLE "5:cjc137_0308"
    INDEX 01 00:16:73
  TRACK 24 AUDIO
    TITLE "0:"
    INDEX 01 00:18:03
  TRACK 25 AUDIO
    TITLE "4:cjc137_0309"
    INDEX 01 00:19:09
  TRACK 26 AUDIO
    TITLE "0:"
    INDEX 01 00:20:16
  TRACK 27 AUDIO
    TITLE "6:cjc137_0310"
    INDEX 01 00:20:28
  TRACK 28 AUDIO
    TITLE "0:"
    INDEX 01 00:21:27
  TRACK 29 AUDIO
    TITLE "5:cjc137_0311"
    INDEX 01 00:21:37
  TRACK 30 AUDIO
    TITLE "0:"
    INDEX 01 00:22:42
  TRACK 31 AUDIO
    TITLE "4:cjc137_0312"
    INDEX 01 00:23:51
  TRACK 32 AUDIO
    TITLE "0:"
    INDEX 01 00:24:57
  TRACK 33 AUDIO
    TITLE "6:cjc137_0313"
    INDEX 01 00:24:67
  TRACK 34 AUDIO
    TITLE "0:"
    INDEX 01 00:25:64
  TRACK 35 AUDIO
    TITLE "5:cjc137_0314"
    INDEX 01 00:26:01
  TRACK 36 AUDIO
    TITLE "0:"
    INDEX 01 00:27:06
  TRACK 37 AUDIO
    TITLE "4:cjc137_0315"
    INDEX 01 00:28:13
  TRACK 38 AUDIO
    TITLE "0:"
    INDEX 01 00:29:27
  TRACK 39 AUDIO
    TITLE "6:cjc137_0316"
    INDEX 01 00:29:38
  TRACK 40 AUDIO
    TITLE "0:"
    INDEX 01 00:30:40
  TRACK 41 AUDIO
    TITLE "5:cjc137_0317"
    INDEX 01 00:30:54
  TRACK 42 AUDIO
    TITLE "0:"
    INDEX 01 00:31:67
  TRACK 43 AUDIO
    TITLE "4:cjc137_0318"
    INDEX 01 00:33:01
  TRACK 44 AUDIO
    TITLE "0:"
    INDEX 01 00:33:69
  TRACK 45 AUDIO
    TITLE "6:cjc137_0319"
    INDEX 01 00:34:08
  TRACK 46 AUDIO
    TITLE "0:"
    INDEX 01 00:35:15
  TRACK 47 AUDIO
    TITLE "5:cjc137_0320"
    INDEX 01 00:35:27
  TRACK 48 AUDIO
    TITLE "0:"
    INDEX 01 00:36:21
  TRACK 49 AUDIO
    TITLE "4:cjc137_0321"
    INDEX 01 00:37:30
  TRACK 50 AUDIO
    TITLE "0:"
    INDEX 01 00:38:33
  TRACK 51 AUDIO
    TITLE "6:cjc137_0322"
    INDEX 01 00:38:45
  TRACK 52 AUDIO
    TITLE "0:"
    INDEX 01 00:39:31
  TRACK 53 AUDIO
    TITLE "5:cjc137_0323"
    INDEX 01 00:39:45
  TRACK 54 AUDIO
    TITLE "0:"
    INDEX 01 00:40:48
  TRACK 55 AUDIO
    TITLE "4:cjc137_0324"
    INDEX 01 00:41:55
  TRACK 56 AUDIO
    TITLE "0:"
    INDEX 01 00:42:70
  TRACK 57 AUDIO
    TITLE "6:cjc137_0325"
    INDEX 01 00:43:07
  TRACK 58 AUDIO
    TITLE "0:"
    INDEX 01 00:44:05
  TRACK 59 AUDIO
    TITLE "5:cjc137_0326"
    INDEX 01 00:44:16
  TRACK 60 AUDIO
    TITLE "0:"
    INDEX 01 00:45:30
  TRACK 61 AUDIO
    TITLE "4:cjc137_0327"
    INDEX 01 00:46:37
  TRACK 62 AUDIO
    TITLE "0:"
    INDEX 01 00:47:38
  TRACK 63 AUDIO
    TITLE "6:cjc137_0328"
    INDEX 01 00:47:48
  TRACK 64 AUDIO
    TITLE "0:"
    INDEX 01 00:48:55
  TRACK 65 AUDIO
    TITLE "5:cjc137_0329"
    INDEX 01 00:48:67
  TRACK 66 AUDIO
    TITLE "0:"
    INDEX 01 00:49:65
  TRACK 67 AUDIO
    TITLE "4:cjc137_0330"
    INDEX 01 00:50:74
  TRACK 68 AUDIO
    TITLE "0:"
    INDEX 01 00:52:02
  TRACK 69 AUDIO
    TITLE "6:cjc137_0331"
    INDEX 01 00:52:14
  TRACK 70 AUDIO
    TITLE "0:"
    INDEX 01 00:53:15
  TRACK 71 AUDIO
    TITLE "5:cjc137_0332"
    INDEX 01 00:53:27
  TRACK 72 AUDIO
    TITLE "0:"
    INDEX 01 00:54:30
  TRACK 73 AUDIO
    TITLE "4:cjc137_0333"
    INDEX 01 00:55:38
  TRACK 74 AUDIO
    TITLE "0:"
    INDEX 01 00:56:41
  TRACK 75 AUDIO
    TITLE "6:cjc137_0334"
    INDEX 01 00:56:55
  TRACK 76 AUDIO
    TITLE "0:"
    INDEX 01 00:57:62
  TRACK 77 AUDIO
    TITLE "5:cjc137_0335"
    INDEX 01 00:57:74
  TRACK 78 AUDIO
    TITLE "0:"
    INDEX 01 00:59:04
  TRACK 79 AUDIO
    TITLE "4:cjc137_0336"
    INDEX 01 01:00:12
  TRACK 80 AUDIO
    TITLE "0:"
    INDEX 01 01:01:19
  TRACK 81 AUDIO
    TITLE "6:cjc137_0337"
    INDEX 01 01:01:31
  TRACK 82 AUDIO
    TITLE "0:"
    INDEX 01 01:02:30
  TRACK 83 AUDIO
    TITLE "5:cjc137_0338"
    INDEX 01 01:02:40
  TRACK 84 AUDIO
    TITLE "0:"
    INDEX 01 01:03:49
